<svg xmlns="http://www.w3.org/2000/svg" viewBox="0 0 900 600" role="img" aria-label="Analytics dashboard preview">
  <rect width="900" height="600" rx="28" fill="#0f172a"/>
  <rect x="56" y="56" width="788" height="488" rx="24" fill="#f8fafc"/>
  <rect x="88" y="94" width="166" height="386" rx="18" fill="#0f172a"/>
  <rect x="290" y="96" width="218" height="110" rx="18" fill="#ccfbf1"/>
  <rect x="536" y="96" width="252" height="110" rx="18" fill="#e0e7ff"/>
  <rect x="290" y="242" width="498" height="238" rx="18" fill="#ffffff" stroke="#cbd5e1"/>
  <path d="M326 421 406 338l80 38 90-96 116 88" fill="none" stroke="#14b8a6" stroke-linecap="round" stroke-linejoin="round" stroke-width="18"/>
  <circle cx="404" cy="338" r="14" fill="#0f766e"/>
  <circle cx="574" cy="280" r="14" fill="#0f766e"/>
  <rect x="116" y="132" width="102" height="14" rx="7" fill="#5eead4"/>
  <rect x="116" y="190" width="88" height="12" rx="6" fill="#64748b"/>
  <rect x="116" y="230" width="104" height="12" rx="6" fill="#64748b"/>
  <rect x="116" y="270" width="76" height="12" rx="6" fill="#64748b"/>
</svg>
