<svg xmlns="http://www.w3.org/2000/svg" viewBox="0 0 900 600" role="img" aria-label="Creative studio website preview">
  <rect width="900" height="600" rx="28" fill="#111827"/>
  <rect x="64" y="70" width="772" height="460" rx="28" fill="#fff7ed"/>
  <path d="M64 214h772v288a28 28 0 0 1-28 28H92a28 28 0 0 1-28-28V214Z" fill="#0f172a"/>
  <rect x="108" y="116" width="140" height="18" rx="9" fill="#be123c"/>
  <rect x="600" y="114" width="74" height="14" rx="7" fill="#475569"/>
  <rect x="700" y="114" width="74" height="14" rx="7" fill="#475569"/>
  <text x="108" y="306" fill="#f8fafc" font-family="Arial, sans-serif" font-size="58" font-weight="800">Luma Studio</text>
  <rect x="112" y="348" width="340" height="16" rx="8" fill="#94a3b8"/>
  <rect x="112" y="382" width="252" height="16" rx="8" fill="#64748b"/>
  <rect x="596" y="270" width="150" height="150" rx="30" fill="#14b8a6"/>
  <circle cx="596" cy="270" r="72" fill="#f43f5e" opacity=".75"/>
  <circle cx="746" cy="420" r="72" fill="#6366f1" opacity=".75"/>
</svg>
