<svg xmlns="http://www.w3.org/2000/svg" viewBox="0 0 900 600" role="img" aria-label="Ecommerce storefront preview">
  <rect width="900" height="600" rx="28" fill="#134e4a"/>
  <rect x="58" y="70" width="784" height="460" rx="26" fill="#f8fafc"/>
  <rect x="92" y="106" width="716" height="74" rx="20" fill="#0f172a"/>
  <rect x="116" y="130" width="122" height="16" rx="8" fill="#5eead4"/>
  <rect x="612" y="128" width="66" height="18" rx="9" fill="#94a3b8"/>
  <rect x="700" y="122" width="70" height="30" rx="15" fill="#f43f5e"/>
  <rect x="108" y="222" width="200" height="230" rx="22" fill="#ecfeff"/>
  <rect x="350" y="222" width="200" height="230" rx="22" fill="#fef3c7"/>
  <rect x="592" y="222" width="200" height="230" rx="22" fill="#e0e7ff"/>
  <circle cx="208" cy="306" r="52" fill="#14b8a6"/>
  <circle cx="450" cy="306" r="52" fill="#f59e0b"/>
  <circle cx="692" cy="306" r="52" fill="#6366f1"/>
  <rect x="142" y="392" width="132" height="14" rx="7" fill="#0f172a"/>
  <rect x="384" y="392" width="132" height="14" rx="7" fill="#0f172a"/>
  <rect x="626" y="392" width="132" height="14" rx="7" fill="#0f172a"/>
  <rect x="154" y="424" width="108" height="12" rx="6" fill="#64748b"/>
  <rect x="396" y="424" width="108" height="12" rx="6" fill="#64748b"/>
  <rect x="638" y="424" width="108" height="12" rx="6" fill="#64748b"/>
</svg>
